<svg width="250" height="201" viewBox="0 0 250 201" fill="none" xmlns="http://www.w3.org/2000/svg">
<path d="M59.1551 98.6591H85.9391V102.019H59.1551V98.6591ZM72.4991 103.619C78.8991 103.619 82.7711 105.571 82.7711 109.059C82.7711 112.547 78.8991 114.499 72.4991 114.499C66.0671 114.499 62.1951 112.547 62.1951 109.059C62.1951 105.571 66.0671 103.619 72.4991 103.619ZM72.4991 106.851C68.5311 106.851 66.5151 107.555 66.5151 109.059C66.5151 110.595 68.5311 111.267 72.4991 111.267C76.4671 111.267 78.4831 110.595 78.4831 109.059C78.4831 107.555 76.4671 106.851 72.4991 106.851ZM72.5631 85.4431C79.0591 85.4431 83.2831 87.6831 83.2831 91.2671C83.2831 94.8831 79.0591 97.0911 72.5631 97.0911C66.0351 97.0911 61.8431 94.8831 61.8431 91.2671C61.8431 87.6831 66.0351 85.4431 72.5631 85.4431ZM72.5631 88.7391C68.4991 88.7391 66.2271 89.5711 66.2271 91.2671C66.2271 92.9951 68.4991 93.7951 72.5631 93.7951C76.5951 93.7951 78.8991 92.9951 78.8991 91.2671C78.8991 89.5711 76.5951 88.7391 72.5631 88.7391ZM91.9603 111.869C91.2709 111.869 90.68 111.627 90.1876 111.142C89.6952 110.657 89.4527 110.066 89.4603 109.369C89.4527 108.687 89.6952 108.104 90.1876 107.619C90.68 107.134 91.2709 106.892 91.9603 106.892C92.627 106.892 93.2065 107.134 93.699 107.619C94.199 108.104 94.4527 108.687 94.4603 109.369C94.4527 109.831 94.3315 110.252 94.0967 110.631C93.8694 111.009 93.5664 111.312 93.1876 111.54C92.8164 111.759 92.4073 111.869 91.9603 111.869ZM107.845 87.5551H126.629V90.9151H107.845V87.5551ZM105.125 107.139H131.909V110.595H105.125V107.139ZM124.389 87.5551H128.613V91.0751C128.613 95.2351 128.613 99.2671 127.557 105.347L123.301 104.995C124.389 99.2991 124.389 95.0751 124.389 91.0751V87.5551ZM135.65 96.3551H138.05C143.65 96.3551 147.042 96.3231 151.01 95.6511L151.33 98.9151C147.266 99.5551 143.746 99.6191 138.05 99.6191H135.65V96.3551ZM135.618 86.1791H148.994V94.3071H139.874V97.8911H135.65V91.3311H144.802V89.3791H135.618V86.1791ZM139.522 101.411H159.33V109.283H143.778V112.451H139.554V106.307H155.106V104.579H139.522V101.411ZM139.554 111.043H160.194V114.275H139.554V111.043ZM155.074 84.8351H159.33V100.259H155.074V84.8351ZM150.434 90.1791H155.97V93.5711H150.434V90.1791ZM164.768 104.419H166.848C170.368 104.419 173.472 104.355 177.12 103.779L177.44 107.203C173.664 107.843 170.464 107.939 166.848 107.939H164.768V104.419ZM164.736 87.7151H175.968V99.1711H168.896V105.699H164.768V95.8111H171.84V91.1071H164.736V87.7151ZM185.376 84.8351H189.408V114.467H185.376V84.8351ZM181.408 96.0351H186.336V99.4271H181.408V96.0351ZM178.752 85.3471H182.688V113.059H178.752V85.3471Z" fill="white" fill-opacity="0.76"/>
</svg>
