<svg width="240" height="215" viewBox="0 0 240 215" fill="none" xmlns="http://www.w3.org/2000/svg">
<mask id="path-1-outside-1_487_80" maskUnits="userSpaceOnUse" x="-25" y="-25" width="290" height="265" fill="black">
<rect fill="white" x="-25" y="-25" width="290" height="265"/>
<path d="M0.240235 215V176H165.24C172.84 176 178.54 173.9 182.34 169.7C186.14 165.3 188.04 159.3 188.04 151.7C188.04 143.9 186.14 137.8 182.34 133.4C178.54 129 172.84 126.8 165.24 126.8H28.4402V88.1H164.94C180.34 88.1 188.04 80 188.04 63.8C188.04 47.8 180.34 39.8 164.94 39.8H0.240235V0.799986H173.94C194.74 0.799986 210.84 5.99998 222.24 16.4C233.84 26.6 239.64 40.9 239.64 59.3C239.64 69.3 237.74 78.8 233.94 87.8C230.14 96.6 223.84 103.1 215.04 107.3C223.84 111.7 230.14 118.2 233.94 126.8C237.74 135.2 239.64 144.5 239.64 154.7C239.64 172.9 233.84 187.5 222.24 198.5C210.84 209.5 194.74 215 173.94 215H0.240235Z"/>
</mask>
<path d="M0.240235 215V176H165.24C172.84 176 178.54 173.9 182.34 169.7C186.14 165.3 188.04 159.3 188.04 151.7C188.04 143.9 186.14 137.8 182.34 133.4C178.54 129 172.84 126.8 165.24 126.8H28.4402V88.1H164.94C180.34 88.1 188.04 80 188.04 63.8C188.04 47.8 180.34 39.8 164.94 39.8H0.240235V0.799986H173.94C194.74 0.799986 210.84 5.99998 222.24 16.4C233.84 26.6 239.64 40.9 239.64 59.3C239.64 69.3 237.74 78.8 233.94 87.8C230.14 96.6 223.84 103.1 215.04 107.3C223.84 111.7 230.14 118.2 233.94 126.8C237.74 135.2 239.64 144.5 239.64 154.7C239.64 172.9 233.84 187.5 222.24 198.5C210.84 209.5 194.74 215 173.94 215H0.240235Z" fill="black"/>
<path d="M0.240234 215H-24.7598V240H0.240234V215ZM0.240234 176V151H-24.7598V176H0.240234ZM182.34 169.7L200.879 186.473L201.072 186.259L201.261 186.04L182.34 169.7ZM182.34 133.4L201.261 117.06V117.059L182.34 133.4ZM28.4402 126.8H3.44024V151.8H28.4402V126.8ZM28.4402 88.1V63.1H3.44024V88.1H28.4402ZM0.240234 39.8H-24.7598V64.8H0.240234V39.8ZM0.240234 0.799988V-24.2H-24.7598V0.799988H0.240234ZM222.24 16.4L205.391 34.8691L205.56 35.0232L205.732 35.1742L222.24 16.4ZM233.94 87.8L256.892 97.7109L256.932 97.6178L256.971 97.5243L233.94 87.8ZM215.04 107.3L204.272 84.738L158.094 106.778L203.86 129.661L215.04 107.3ZM233.94 126.8L211.073 136.904L211.117 137.004L211.163 137.104L233.94 126.8ZM222.24 198.5L205.038 180.359L204.959 180.434L204.881 180.51L222.24 198.5ZM25.2402 215V176H-24.7598V215H25.2402ZM0.240234 201H165.24V151H0.240234V201ZM165.24 201C177.375 201 190.873 197.532 200.879 186.473L163.802 152.927C164.259 152.422 164.779 151.978 165.317 151.621C165.849 151.269 166.296 151.068 166.573 150.966C167.087 150.777 166.802 151 165.24 151V201ZM201.261 186.04C210.056 175.856 213.04 163.423 213.04 151.7H163.04C163.04 153.452 162.818 154.239 162.782 154.353C162.767 154.399 162.797 154.292 162.911 154.084C163.027 153.872 163.197 153.618 163.42 153.359L201.261 186.04ZM213.04 151.7C213.04 139.968 210.151 127.353 201.261 117.06L163.42 149.74C163.166 149.446 162.982 149.166 162.863 148.946C162.746 148.731 162.723 148.633 162.746 148.71C162.802 148.89 163.04 149.786 163.04 151.7H213.04ZM201.261 117.059C191.351 105.585 177.727 101.8 165.24 101.8V151.8C166.686 151.8 166.841 152.015 166.213 151.773C165.884 151.646 165.408 151.418 164.87 151.044C164.327 150.666 163.833 150.219 163.42 149.74L201.261 117.059ZM165.24 101.8H28.4402V151.8H165.24V101.8ZM53.4402 126.8V88.1H3.44024V126.8H53.4402ZM28.4402 113.1H164.94V63.1H28.4402V113.1ZM164.94 113.1C176.826 113.1 190.249 109.911 200.385 99.2496C210.294 88.825 213.04 75.4465 213.04 63.8H163.04C163.04 64.8444 162.978 65.6089 162.907 66.1311C162.836 66.6522 162.764 66.8809 162.764 66.8795C162.767 66.8714 162.847 66.6232 163.076 66.2217C163.31 65.8106 163.66 65.3112 164.146 64.8004C164.633 64.2874 165.161 63.8649 165.673 63.5417C166.177 63.2234 166.573 63.06 166.774 62.9896C167.131 62.8646 166.669 63.1 164.94 63.1V113.1ZM213.04 63.8C213.04 52.1804 210.257 38.8321 200.277 28.4633C190.126 17.9164 176.742 14.8 164.94 14.8V64.8C166.697 64.8 167.192 65.0364 166.865 64.9234C166.679 64.8588 166.292 64.7023 165.792 64.3904C165.283 64.0734 164.751 63.6538 164.253 63.1367C163.757 62.6212 163.392 62.1099 163.143 61.6774C162.898 61.2543 162.805 60.9786 162.792 60.9374C162.782 60.9073 163.04 61.7281 163.04 63.8H213.04ZM164.94 14.8H0.240234V64.8H164.94V14.8ZM25.2402 39.8V0.799988H-24.7598V39.8H25.2402ZM0.240234 25.8H173.94V-24.2H0.240234V25.8ZM173.94 25.8C190.708 25.8 199.999 29.9501 205.391 34.8691L239.089 -2.06917C221.681 -17.9501 198.773 -24.2 173.94 -24.2V25.8ZM205.732 35.1742C210.898 39.7168 214.64 46.5822 214.64 59.3H264.64C264.64 35.2178 256.783 13.4832 238.749 -2.37427L205.732 35.1742ZM214.64 59.3C214.64 66.0404 213.379 72.2266 210.909 78.0757L256.971 97.5243C262.102 85.3734 264.64 72.5596 264.64 59.3H214.64ZM210.989 77.8891C209.631 81.0328 207.718 83.0932 204.272 84.738L225.809 129.862C239.962 123.107 250.649 112.167 256.892 97.7109L210.989 77.8891ZM203.86 129.661C207.719 131.59 209.74 133.887 211.073 136.904L256.807 116.696C250.541 102.513 239.962 91.8099 226.221 84.9393L203.86 129.661ZM211.163 137.104C213.349 141.937 214.64 147.673 214.64 154.7H264.64C264.64 141.327 262.132 128.463 256.718 116.496L211.163 137.104ZM214.64 154.7C214.64 167.082 210.951 174.752 205.038 180.359L239.443 216.641C256.73 200.248 264.64 178.718 264.64 154.7H214.64ZM204.881 180.51C199.457 185.743 190.358 190 173.94 190V240C199.122 240 222.223 233.257 239.599 216.49L204.881 180.51ZM173.94 190H0.240234V240H173.94V190Z" fill="white" mask="url(#path-1-outside-1_487_80)"/>
</svg>
