<svg width="271" height="215" viewBox="0 0 271 215" fill="none" xmlns="http://www.w3.org/2000/svg">
<mask id="path-1-outside-1_487_91" maskUnits="userSpaceOnUse" x="-25" y="-25" width="321" height="265" fill="black">
<rect fill="white" x="-25" y="-25" width="321" height="265"/>
<path d="M0.273438 175.7V136.4L113.073 0.799986H172.173L57.5734 136.7H173.373V87.5H219.873V136.7H270.273V175.7H219.873V215H173.373V175.7H0.273438Z"/>
</mask>
<path d="M0.273438 175.7V136.4L113.073 0.799986H172.173L57.5734 136.7H173.373V87.5H219.873V136.7H270.273V175.7H219.873V215H173.373V175.7H0.273438Z" fill="black"/>
<path d="M0.273438 175.7H-24.7266V200.7H0.273438V175.7ZM0.273438 136.4L-18.946 120.412L-24.7266 127.361V136.4H0.273438ZM113.073 0.799988V-24.2H101.351L93.854 -15.1879L113.073 0.799988ZM172.173 0.799988L191.285 16.9164L225.957 -24.2H172.173V0.799988ZM57.5734 136.7L38.4616 120.584L3.78951 161.7H57.5734V136.7ZM173.373 136.7V161.7H198.373V136.7H173.373ZM173.373 87.5V62.5H148.373V87.5H173.373ZM219.873 87.5H244.873V62.5H219.873V87.5ZM219.873 136.7H194.873V161.7H219.873V136.7ZM270.273 136.7H295.273V111.7H270.273V136.7ZM270.273 175.7V200.7H295.273V175.7H270.273ZM219.873 175.7V150.7H194.873V175.7H219.873ZM219.873 215V240H244.873V215H219.873ZM173.373 215H148.373V240H173.373V215ZM173.373 175.7H198.373V150.7H173.373V175.7ZM25.2734 175.7V136.4H-24.7266V175.7H25.2734ZM19.4929 152.388L132.293 16.7879L93.854 -15.1879L-18.946 120.412L19.4929 152.388ZM113.073 25.8H172.173V-24.2H113.073V25.8ZM153.062 -15.3164L38.4616 120.584L76.6853 152.816L191.285 16.9164L153.062 -15.3164ZM57.5734 161.7H173.373V111.7H57.5734V161.7ZM198.373 136.7V87.5H148.373V136.7H198.373ZM173.373 112.5H219.873V62.5H173.373V112.5ZM194.873 87.5V136.7H244.873V87.5H194.873ZM219.873 161.7H270.273V111.7H219.873V161.7ZM245.273 136.7V175.7H295.273V136.7H245.273ZM270.273 150.7H219.873V200.7H270.273V150.7ZM194.873 175.7V215H244.873V175.7H194.873ZM219.873 190H173.373V240H219.873V190ZM198.373 215V175.7H148.373V215H198.373ZM173.373 150.7H0.273438V200.7H173.373V150.7Z" fill="white" mask="url(#path-1-outside-1_487_91)"/>
</svg>
