<svg width="240" height="215" viewBox="0 0 240 215" fill="none" xmlns="http://www.w3.org/2000/svg">
<mask id="path-1-outside-1_487_79" maskUnits="userSpaceOnUse" x="-25" y="-25" width="290" height="265" fill="black">
<rect fill="white" x="-25" y="-25" width="290" height="265"/>
<path d="M0.240235 215V151.4C0.240235 131.4 5.84023 115.9 17.0402 104.9C28.2402 93.9 44.5402 88.4 65.9402 88.4H164.64C183.64 88.4 193.14 80.3 193.14 64.1C193.14 47.9 183.64 39.8 164.64 39.8H5.04024V0.799986H173.94C194.74 0.799986 210.84 6.39999 222.24 17.6C233.84 28.8 239.64 44.3 239.64 64.1C239.64 83.9 233.84 99.4 222.24 110.6C210.84 121.8 194.74 127.4 173.94 127.4H72.5402C63.9402 127.4 57.4402 129.6 53.0402 134C48.8402 138.2 46.7402 144.2 46.7402 152V176.3H233.94V215H0.240235Z"/>
</mask>
<path d="M0.240235 215V151.4C0.240235 131.4 5.84023 115.9 17.0402 104.9C28.2402 93.9 44.5402 88.4 65.9402 88.4H164.64C183.64 88.4 193.14 80.3 193.14 64.1C193.14 47.9 183.64 39.8 164.64 39.8H5.04024V0.799986H173.94C194.74 0.799986 210.84 6.39999 222.24 17.6C233.84 28.8 239.64 44.3 239.64 64.1C239.64 83.9 233.84 99.4 222.24 110.6C210.84 121.8 194.74 127.4 173.94 127.4H72.5402C63.9402 127.4 57.4402 129.6 53.0402 134C48.8402 138.2 46.7402 144.2 46.7402 152V176.3H233.94V215H0.240235Z" fill="black"/>
<path d="M0.240234 215H-24.7598V240H0.240234V215ZM5.04024 39.8H-19.9598V64.8H5.04024V39.8ZM5.04024 0.799988V-24.2H-19.9598V0.799988H5.04024ZM222.24 17.6L204.72 35.4334L204.797 35.5095L204.875 35.585L222.24 17.6ZM222.24 110.6L204.875 92.615L204.797 92.6904L204.72 92.7666L222.24 110.6ZM53.0402 134L70.7179 151.678L70.7179 151.678L53.0402 134ZM46.7402 176.3H21.7402V201.3H46.7402V176.3ZM233.94 176.3H258.94V151.3H233.94V176.3ZM233.94 215V240H258.94V215H233.94ZM25.2402 215V151.4H-24.7598V215H25.2402ZM25.2402 151.4C25.2402 136.174 29.3677 127.834 34.5579 122.736L-0.477466 87.0638C-17.6872 103.966 -24.7598 126.626 -24.7598 151.4H25.2402ZM34.5579 122.736C39.5952 117.789 48.6603 113.4 65.9402 113.4V63.4C40.4202 63.4 16.8853 70.0111 -0.477466 87.0638L34.5579 122.736ZM65.9402 113.4H164.64V63.4H65.9402V113.4ZM164.64 113.4C177.106 113.4 191.119 110.827 202.235 101.349C214.116 91.2195 218.14 77.1883 218.14 64.1H168.14C168.14 65.7621 167.891 66.0995 168.075 65.6285C168.173 65.3783 168.363 64.9817 168.687 64.5205C169.015 64.0549 169.399 63.6392 169.795 63.3012C170.614 62.6032 171.02 62.6217 170.274 62.8336C169.459 63.0654 167.695 63.4 164.64 63.4V113.4ZM218.14 64.1C218.14 51.0117 214.116 36.9805 202.236 26.8512C191.119 17.3726 177.106 14.8 164.64 14.8V64.8C167.695 64.8 169.459 65.1346 170.274 65.3664C171.02 65.5783 170.614 65.5968 169.795 64.8987C169.399 64.5608 169.015 64.1451 168.687 63.6795C168.363 63.2183 168.173 62.8217 168.075 62.5715C167.891 62.1005 168.14 62.4378 168.14 64.1H218.14ZM164.64 14.8H5.04024V64.8H164.64V14.8ZM30.0402 39.8V0.799988H-19.9598V39.8H30.0402ZM5.04024 25.8H173.94V-24.2H5.04024V25.8ZM173.94 25.8C190.24 25.8 199.28 30.0886 204.72 35.4334L239.761 -0.233425C222.401 -17.2887 199.241 -24.2 173.94 -24.2V25.8ZM204.875 35.585C210.523 41.0383 214.64 49.4308 214.64 64.1H264.64C264.64 39.1692 257.157 16.5617 239.605 -0.385056L204.875 35.585ZM214.64 64.1C214.64 78.7692 210.523 87.1617 204.875 92.615L239.605 128.585C257.157 111.638 264.64 89.0308 264.64 64.1H214.64ZM204.72 92.7666C199.28 98.1113 190.24 102.4 173.94 102.4V152.4C199.241 152.4 222.401 145.489 239.761 128.433L204.72 92.7666ZM173.94 102.4H72.5402V152.4H173.94V102.4ZM72.5402 102.4C59.8932 102.4 46.0067 105.678 35.3626 116.322L70.7179 151.678C70.3627 152.033 69.9987 152.306 69.6828 152.498C69.3747 152.684 69.197 152.742 69.2301 152.73C69.3396 152.693 70.3058 152.4 72.5402 152.4V102.4ZM35.3626 116.322C25.1422 126.543 21.7402 139.727 21.7402 152H71.7402C71.7402 150.297 71.9743 149.73 71.9117 149.909C71.8756 150.012 71.7714 150.273 71.5539 150.625C71.3333 150.982 71.0498 151.346 70.7179 151.678L35.3626 116.322ZM21.7402 152V176.3H71.7402V152H21.7402ZM46.7402 201.3H233.94V151.3H46.7402V201.3ZM208.94 176.3V215H258.94V176.3H208.94ZM233.94 190H0.240234V240H233.94V190Z" fill="white" mask="url(#path-1-outside-1_487_79)"/>
</svg>
