<?xml version="1.0" standalone="no"?>
<!DOCTYPE svg PUBLIC "-//W3C//DTD SVG 20010904//EN"
 "http://www.w3.org/TR/2001/REC-SVG-20010904/DTD/svg10.dtd">
<svg version="1.0" xmlns="http://www.w3.org/2000/svg"
 width="400.000000pt" height="470.000000pt" viewBox="0 0 400.000000 470.000000"
 preserveAspectRatio="xMidYMid meet">

<g transform="translate(0.000000,470.000000) scale(0.100000,-0.100000)"
fill="#000000" stroke="none">
<path d="M640 4436 c0 -2 7 -7 16 -10 8 -3 12 -2 9 4 -6 10 -25 14 -25 6z"/>
<path d="M780 4389 c0 -5 10 -9 22 -9 12 0 18 3 14 7 -10 11 -36 12 -36 2z"/>
<path d="M865 4370 c3 -5 8 -10 11 -10 2 0 4 5 4 10 0 6 -5 10 -11 10 -5 0 -7
-4 -4 -10z"/>
<path d="M706 4287 c3 -10 9 -15 12 -12 3 3 0 11 -7 18 -10 9 -11 8 -5 -6z"/>
<path d="M1040 4084 c0 -3 14 -19 30 -34 17 -15 30 -31 30 -35 0 -8 26 -35 35
-35 6 0 84 -78 116 -116 8 -11 27 -28 42 -39 15 -11 27 -25 27 -32 0 -7 5 -13
10 -13 6 0 10 -6 10 -14 0 -8 9 -18 20 -21 11 -4 18 -10 15 -14 -4 -7 12 -29
72 -100 13 -14 23 -32 23 -39 0 -7 4 -11 9 -8 5 3 14 -8 21 -24 7 -17 17 -30
22 -30 5 0 6 -4 3 -10 -3 -5 -2 -10 4 -10 5 0 20 -18 32 -40 13 -22 26 -40 31
-40 4 0 8 -7 8 -15 0 -8 5 -15 10 -15 6 0 10 -9 10 -20 0 -11 4 -20 9 -20 5 0
11 -8 14 -17 11 -34 69 -128 87 -143 11 -8 32 -46 48 -85 16 -38 44 -101 62
-140 105 -227 188 -582 220 -937 18 -190 11 -205 -74 -178 -17 5 -42 12 -56
14 -14 3 -36 16 -50 28 -14 13 -34 25 -45 26 -11 2 -21 8 -23 13 -2 5 -17 9
-33 9 -18 0 -28 4 -24 10 5 9 -15 15 -37 11 -5 0 -8 3 -8 8 0 5 -25 21 -55 36
-30 14 -55 30 -55 34 0 4 -9 7 -20 8 -11 1 -35 18 -55 37 -20 20 -43 36 -51
36 -9 0 -29 15 -45 33 -51 57 -62 67 -76 67 -7 0 -13 7 -13 15 0 8 -4 15 -10
15 -5 0 -10 5 -10 11 0 6 -6 16 -12 23 -51 53 -112 145 -150 229 -12 26 -25
47 -30 47 -4 0 -8 10 -9 23 0 12 -3 16 -6 9 -11 -29 63 -229 89 -240 4 -2 8
-12 8 -23 0 -10 4 -19 8 -19 5 0 15 -12 23 -27 7 -16 23 -41 34 -56 29 -40
183 -196 229 -232 21 -17 45 -36 52 -42 7 -7 18 -13 24 -13 6 0 22 -11 35 -24
13 -14 40 -30 60 -37 19 -7 35 -17 35 -21 0 -4 10 -8 23 -8 13 0 32 -8 42 -18
13 -12 30 -16 51 -14 18 2 62 -5 98 -17 36 -12 73 -21 83 -21 10 0 29 -7 41
-16 20 -14 22 -24 22 -102 0 -85 -13 -215 -45 -437 -43 -306 -44 -287 32 -332
48 -28 94 -26 133 5 22 18 23 22 57 352 24 230 23 660 -1 825 -9 66 -20 145
-23 175 l-5 55 219 110 c120 60 221 113 224 118 3 5 8 7 11 5 6 -3 25 14 136
120 42 39 73 72 68 72 -5 0 1 8 12 19 12 10 19 21 15 25 -3 3 -1 6 5 6 7 0 12
7 12 15 0 8 5 15 10 15 6 0 10 10 10 22 0 12 3 18 7 15 6 -7 18 9 50 73 10 19
21 37 26 38 4 2 7 12 7 22 0 10 5 22 10 25 6 3 10 17 10 31 0 13 5 24 10 24 6
0 10 16 10 35 0 19 5 35 10 35 6 0 10 15 10 34 0 19 4 36 10 38 15 5 18 150 3
155 -9 3 -13 -10 -13 -46 0 -28 -4 -51 -10 -51 -5 0 -10 -16 -10 -35 0 -19 -4
-35 -10 -35 -5 0 -10 -6 -10 -13 0 -7 -11 -35 -23 -63 -13 -27 -30 -64 -38
-81 -8 -18 -17 -33 -21 -33 -5 0 -8 -7 -8 -15 0 -8 -3 -15 -7 -15 -5 0 -17
-18 -27 -40 -11 -22 -23 -40 -27 -40 -4 0 -11 -9 -14 -20 -3 -11 -12 -20 -19
-20 -6 0 -19 -12 -29 -27 -29 -48 -84 -103 -103 -103 -9 0 -15 -3 -11 -6 8 -9
-71 -81 -105 -97 -15 -6 -28 -15 -28 -19 0 -5 -8 -8 -18 -8 -9 0 -22 -10 -27
-21 -11 -23 -87 -66 -248 -138 -113 -51 -116 -50 -135 37 -15 67 -92 288 -134
384 -41 94 -141 287 -184 359 -19 30 -36 65 -38 76 -5 26 -34 72 -58 94 -10 9
-18 22 -18 28 0 7 -6 18 -12 25 -7 7 -22 25 -33 41 -11 15 -35 43 -52 61 -18
18 -33 36 -33 39 0 3 -10 16 -22 29 -13 13 -50 54 -83 91 -77 87 -115 125
-148 150 -15 11 -27 25 -27 32 0 7 -6 13 -13 13 -7 0 -20 9 -30 20 -9 11 -24
20 -32 20 -9 0 -13 5 -10 10 3 6 1 10 -5 10 -5 0 -25 14 -42 31 -18 17 -45 38
-60 47 -16 9 -28 20 -28 24 0 4 -7 8 -15 8 -8 0 -15 5 -15 10 0 6 -7 10 -15
10 -8 0 -15 -3 -15 -6z"/>
<path d="M3321 3973 c0 -5 4 -17 9 -28 8 -18 9 -17 9 8 1 15 -3 27 -9 27 -5 0
-10 -3 -9 -7z"/>
<path d="M3303 3935 c-3 -9 -3 -18 -1 -21 3 -3 8 4 11 16 6 23 -1 27 -10 5z"/>
<path d="M3281 3884 c0 -11 3 -14 6 -6 3 7 2 16 -1 19 -3 4 -6 -2 -5 -13z"/>
<path d="M882 3745 c0 -16 2 -22 5 -12 2 9 2 23 0 30 -3 6 -5 -1 -5 -18z"/>
<path d="M902 3650 c0 -19 2 -27 5 -17 2 9 2 25 0 35 -3 9 -5 1 -5 -18z"/>
<path d="M1116 3195 c4 -8 11 -15 16 -15 6 0 5 6 -2 15 -7 8 -14 15 -16 15 -2
0 -1 -7 2 -15z"/>
<path d="M1257 3119 c7 -7 15 -10 18 -7 3 3 -2 9 -12 12 -14 6 -15 5 -6 -5z"/>
<path d="M1508 3113 c7 -3 16 -2 19 1 4 3 -2 6 -13 5 -11 0 -14 -3 -6 -6z"/>
<path d="M1378 3093 c12 -2 32 -2 45 0 12 2 2 4 -23 4 -25 0 -35 -2 -22 -4z"/>
<path d="M3412 2985 c0 -16 2 -22 5 -12 2 9 2 23 0 30 -3 6 -5 -1 -5 -18z"/>
<path d="M966 2991 c-4 -7 -5 -15 -2 -18 9 -9 19 4 14 18 -4 11 -6 11 -12 0z"/>
<path d="M2441 2974 c0 -11 3 -14 6 -6 3 7 2 16 -1 19 -3 4 -6 -2 -5 -13z"/>
<path d="M3391 2844 c0 -11 3 -14 6 -6 3 7 2 16 -1 19 -3 4 -6 -2 -5 -13z"/>
<path d="M2441 2824 c0 -11 3 -14 6 -6 3 7 2 16 -1 19 -3 4 -6 -2 -5 -13z"/>
<path d="M3278 2645 c-24 -33 -23 -43 2 -15 11 13 20 27 20 32 0 12 -3 10 -22
-17z"/>
<path d="M971 2634 c0 -11 3 -14 6 -6 3 7 2 16 -1 19 -3 4 -6 -2 -5 -13z"/>
<path d="M972 2570 c0 -19 2 -27 5 -17 2 9 2 25 0 35 -3 9 -5 1 -5 -18z"/>
<path d="M3210 2575 c-11 -13 -10 -14 4 -9 9 3 16 10 16 15 0 13 -6 11 -20 -6z"/>
<path d="M993 2365 c0 -27 2 -38 4 -22 2 15 2 37 0 50 -2 12 -4 0 -4 -28z"/>
<path d="M1013 2235 c0 -22 2 -30 4 -17 2 12 2 30 0 40 -3 9 -5 -1 -4 -23z"/>
<path d="M1923 2130 c0 -47 2 -66 4 -42 2 23 2 61 0 85 -2 23 -4 4 -4 -43z"/>
<path d="M1032 2150 c0 -19 2 -27 5 -17 2 9 2 25 0 35 -3 9 -5 1 -5 -18z"/>
<path d="M1071 2024 c0 -11 3 -14 6 -6 3 7 2 16 -1 19 -3 4 -6 -2 -5 -13z"/>
<path d="M1252 1804 c10 -10 20 -16 22 -13 3 3 -5 11 -17 18 -21 13 -21 12 -5
-5z"/>
<path d="M1298 1773 c6 -2 18 -2 25 0 6 3 1 5 -13 5 -14 0 -19 -2 -12 -5z"/>
<path d="M1477 1713 c18 -2 50 -2 70 0 21 2 7 4 -32 4 -38 0 -55 -2 -38 -4z"/>
<path d="M1829 903 c-15 -2 -51 -18 -80 -36 -66 -40 -106 -101 -129 -200 l-17
-72 -78 -7 c-102 -10 -162 -30 -243 -85 -74 -49 -73 -49 -152 -33 -190 40
-354 -85 -337 -256 6 -57 -4 -74 -40 -74 -42 0 -127 -46 -168 -91 l-39 -44
1504 -3 c895 -1 1508 2 1513 7 16 16 20 138 6 188 -15 55 -91 139 -149 166
-48 22 -109 37 -148 37 -28 0 -36 7 -62 49 -51 82 -136 126 -245 126 -90 0
-141 -16 -192 -60 -23 -19 -47 -35 -55 -35 -8 0 -29 16 -48 35 -45 47 -93 68
-170 74 -71 7 -67 2 -90 98 -16 66 -79 138 -138 157 -49 17 -51 16 -108 -9
l-58 -26 -40 29 c-23 16 -55 37 -73 45 -33 18 -120 28 -164 20z"/>
</g>
</svg>
